# xmcd CD database file
#
# Track frame offsets:
#	154
#	20852
#	35343
#	53381
#	71249
#	82930
#	112261
#	132446
#	151253
#	171897
#	198165
#	216492
#	236076
#	254745
#	270586
#	288675
#	304058
#
# Disc length: 4307 seconds
#
# Revision: 0
# Processed by: cddbd v1.5.2PL0 Copyright (c) Steve Scherf et al.
# Submitted via: CDex 1.51
#
DISCID=0310d111
DTITLE=Various Artist - 101 Jazz CD 4
DYEAR=1900
DGENRE=Jazz
TTITLE0=Let's Fall In Love
TTITLE1=Too Much
TTITLE2=Circles
TTITLE3=Winners
TTITLE4=Hello Dolly
TTITLE5=When The Sun Goes Down
TTITLE6=Monalisa
TTITLE7=Such Eyes, So Beautiful
TTITLE8=Money
TTITLE9=Shine On You Crazy Diamond
TTITLE10=All I Need
TTITLE11=Spin
TTITLE12=It Could Be So Nice
TTITLE13=Put Your Records On
TTITLE14=Doubts
TTITLE15=Out Here On My Own
TTITLE16=Make This City Ours Tonight
EXTD=
EXTT0=
EXTT1=
EXTT2=
EXTT3=
EXTT4=
EXTT5=
EXTT6=
EXTT7=
EXTT8=
EXTT9=
EXTT10=
EXTT11=
EXTT12=
EXTT13=
EXTT14=
EXTT15=
EXTT16=
PLAYORDER=
